<svg width="43" height="48" viewBox="0 0 43 48" fill="none" xmlns="http://www.w3.org/2000/svg">
<g clip-path="url(#clip0_184_66)">
<path d="M36.9882 29.0053C31.8032 28.2866 27.5936 29.8781 24.8727 34.3444C21.9979 39.0417 22.6396 43.6364 25.9508 48H0.0770056C0.0770056 48 0.0256687 47.923 0.0256687 47.8717C0.0513372 45.3818 -0.128342 42.8406 0.154011 40.3765C1.00107 32.8556 5.03102 27.5936 11.9358 24.539C14.3487 23.461 16.9155 23.0246 19.5594 23.0759C21.7155 23.1273 23.8973 23.0759 26.0278 23.3326C30.2631 23.8717 33.8567 25.8225 36.8599 28.8257C36.9112 28.877 36.9369 28.9283 36.9882 29.0053Z" fill="#B641F9"/>
<path d="M11.5765 9.57433C11.5765 4.26096 15.9144 0 21.2535 0C26.5668 0 30.8535 4.36364 30.8278 9.67701C30.8021 14.939 26.4642 19.2257 21.1765 19.2257C15.8631 19.2257 11.5508 14.8877 11.5765 9.57433Z" fill="#B641F9"/>
<path d="M32.7786 42.2503H27.0032V38.4513H32.7529V32.7016H36.5775V38.4257H42.3529V42.2503H36.6032V48H32.7786V42.2503Z" fill="#B641F9"/>
</g>
<defs>
<clipPath id="clip0_184_66">
<rect width="42.3529" height="48" fill="white"/>
</clipPath>
</defs>
</svg>
