<svg width="49" height="49" viewBox="0 0 49 49" fill="none" xmlns="http://www.w3.org/2000/svg">
<g clip-path="url(#clip0_184_45)">
<path d="M49 23.437C48.4532 11.4711 39.2074 1.74252 27.4832 0.5C27.5997 0.648562 27.7117 0.797123 27.8238 0.945685C27.9582 1.12126 28.0927 1.29233 28.2226 1.4679C28.4378 1.76052 28.6484 2.05315 28.8591 2.35027C28.9756 2.51684 29.0921 2.67891 29.2086 2.84547C29.4462 3.19212 29.6702 3.54326 29.8943 3.89441C29.9705 4.01596 30.0512 4.13301 30.1274 4.25456C30.4232 4.73176 30.71 5.21346 30.9879 5.70416C31.0417 5.8032 31.0954 5.90225 31.1492 6.00129C31.3643 6.39295 31.5795 6.78461 31.7812 7.18528C31.8708 7.36085 31.9515 7.53642 32.0411 7.712C32.2024 8.04063 32.3593 8.36927 32.5117 8.69791C32.6013 8.89599 32.6909 9.09407 32.7761 9.29215C32.915 9.60729 33.0495 9.92692 33.1795 10.2466C33.2646 10.4536 33.3453 10.6607 33.426 10.8678C33.5514 11.1919 33.6724 11.5161 33.789 11.8402C33.8607 12.0428 33.9369 12.2454 34.0041 12.4525C34.1206 12.7991 34.2327 13.1503 34.3447 13.5014C34.403 13.686 34.4612 13.8706 34.515 14.0551C34.645 14.5008 34.766 14.9465 34.8825 15.3922C34.9049 15.4867 34.9363 15.5813 34.9587 15.6758C35.0932 16.2205 35.2186 16.7698 35.3307 17.319C35.3621 17.4676 35.3845 17.6161 35.4158 17.7647C35.492 18.1698 35.5682 18.575 35.6355 18.9802C35.6668 19.1783 35.6937 19.3808 35.7251 19.5834C35.7789 19.9436 35.8282 20.3037 35.8685 20.6639C35.8954 20.88 35.9178 21.0961 35.9402 21.3121C35.9761 21.6633 36.0074 22.0189 36.0343 22.3746C36.0523 22.5907 36.0657 22.8068 36.0791 23.0274C36.0881 23.1624 36.1016 23.2975 36.106 23.437H49.0045H49Z" fill="#0E6A35"/>
<path d="M36.0343 26.7504C36.0074 27.106 35.976 27.4572 35.9402 27.8128C35.9178 28.0289 35.8954 28.245 35.8685 28.4611C35.8237 28.8212 35.7744 29.1814 35.7251 29.5415C35.6937 29.7441 35.6668 29.9422 35.6354 30.1448C35.5682 30.55 35.4965 30.9551 35.4158 31.3603C35.3889 31.5089 35.362 31.6574 35.3307 31.806C35.2186 32.3552 35.0931 32.9044 34.9587 33.4492C34.9363 33.5437 34.9094 33.6337 34.8825 33.7283C34.766 34.1785 34.6449 34.6242 34.515 35.0698C34.4612 35.2544 34.3985 35.439 34.3447 35.6236C34.2371 35.9747 34.1251 36.3259 34.0041 36.6725C33.9324 36.8751 33.8606 37.0777 33.7889 37.2848C33.6724 37.6134 33.5514 37.9375 33.4259 38.2617C33.3452 38.4688 33.2646 38.6758 33.1794 38.8784C33.0494 39.1981 32.9105 39.5177 32.7716 39.8373C32.6864 40.0354 32.5968 40.2335 32.5072 40.4316C32.3548 40.7647 32.1934 41.0933 32.0321 41.422C31.9469 41.5976 31.8618 41.7731 31.7766 41.9442C31.5705 42.3449 31.3598 42.741 31.1402 43.1372C31.0864 43.2317 31.0371 43.3308 30.9834 43.4253C30.7055 43.916 30.4187 44.3977 30.1229 44.8749C30.0467 44.9965 29.9705 45.1135 29.8943 45.2306C29.6702 45.5862 29.4416 45.9374 29.2041 46.284C29.0921 46.4506 28.9711 46.6126 28.8545 46.7792C28.6439 47.0763 28.4332 47.369 28.2181 47.6616C28.0882 47.8372 27.9537 48.0127 27.8192 48.1838C27.7027 48.3324 27.5952 48.4854 27.4786 48.6295C39.2029 47.387 48.4487 37.6584 49 25.6924H36.1015C36.097 25.8275 36.0836 25.9671 36.0746 26.1021C36.0612 26.3182 36.0477 26.5343 36.0298 26.7549L36.0343 26.7504Z" fill="#0E6A35"/>
<path d="M13.8452 22.3609C13.8721 22.0188 13.9034 21.6766 13.9348 21.3345C13.9572 21.1094 13.9796 20.8843 14.0065 20.6592C14.0469 20.3081 14.0962 19.9569 14.1455 19.6103C14.1768 19.3987 14.2037 19.1916 14.2396 18.9845C14.3023 18.5883 14.3785 18.1922 14.4547 17.8005C14.4861 17.643 14.513 17.4854 14.5443 17.3278C14.6564 16.7786 14.7819 16.2339 14.9163 15.6891C14.9432 15.5856 14.9746 15.4866 14.997 15.383C15.109 14.9418 15.23 14.5052 15.3555 14.0685C15.4093 13.8794 15.4721 13.6948 15.5303 13.5057C15.6379 13.1591 15.7499 12.8079 15.8664 12.4658C15.9382 12.2587 16.0099 12.0561 16.0861 11.849C16.2026 11.5249 16.3236 11.2008 16.4491 10.8766C16.5297 10.6696 16.6104 10.4625 16.6956 10.2554C16.8255 9.93575 16.96 9.61612 17.0989 9.30099C17.1841 9.10291 17.2737 8.90482 17.3633 8.70674C17.5157 8.3736 17.6726 8.04497 17.8339 7.72083C17.9191 7.54526 18.0042 7.36969 18.0939 7.19411C18.2956 6.79795 18.5107 6.40178 18.7258 6.01462C18.7796 5.91558 18.8334 5.81654 18.8871 5.7175C19.165 5.2268 19.4518 4.7451 19.7476 4.2679C19.8238 4.14635 19.9045 4.0248 19.9807 3.90325C20.2048 3.5521 20.4333 3.20095 20.6664 2.85431C20.7829 2.68774 20.8994 2.52117 21.0205 2.3546C21.2266 2.06198 21.4373 1.76936 21.6524 1.47674C21.7868 1.30116 21.9213 1.12559 22.0557 0.950019C22.1678 0.801457 22.2798 0.652895 22.3964 0.504333C10.6676 1.74235 1.42177 11.4709 0.875 23.4369H13.7735C13.778 23.3063 13.7914 23.1758 13.8004 23.0452C13.8138 22.8156 13.8317 22.586 13.8452 22.3609Z" fill="#0E6A35"/>
<path d="M0.875 25.688C1.42177 37.6585 10.6676 47.3825 22.3964 48.625C22.2843 48.481 22.1767 48.3369 22.0647 48.1928C21.9258 48.0128 21.7868 47.8327 21.6479 47.6481C21.4373 47.3645 21.2311 47.0764 21.0294 46.7883C20.9084 46.6172 20.7829 46.4461 20.6664 46.2705C20.4378 45.9329 20.2137 45.5908 19.9941 45.2441C19.9135 45.1181 19.8283 44.992 19.7476 44.8615C19.4518 44.3843 19.165 43.9026 18.8916 43.4164C18.8334 43.3128 18.7796 43.2048 18.7213 43.1012C18.5062 42.7141 18.3 42.3269 18.0984 41.9352C18.0087 41.7597 17.9236 41.5796 17.8384 41.404C17.6771 41.0799 17.5202 40.7512 17.3678 40.4226C17.2782 40.2245 17.1886 40.0264 17.1034 39.8239C16.9645 39.5087 16.83 39.1891 16.7001 38.874C16.6149 38.6669 16.5342 38.4598 16.4536 38.2527C16.3281 37.9331 16.2071 37.6089 16.0905 37.2848C16.0188 37.0777 15.9426 36.8751 15.8709 36.668C15.7544 36.3214 15.6424 35.9748 15.5348 35.6281C15.4765 35.439 15.4138 35.2545 15.36 35.0654C15.23 34.6287 15.1135 34.192 15.0015 33.7553C14.9746 33.6518 14.9432 33.5483 14.9163 33.4447C14.7819 32.9 14.6564 32.3553 14.5443 31.806C14.513 31.6485 14.4861 31.4909 14.4547 31.3333C14.3785 30.9417 14.3068 30.5455 14.2396 30.1493C14.2037 29.9423 14.1768 29.7307 14.1455 29.5236C14.0962 29.1724 14.0469 28.8258 14.0065 28.4746C13.9796 28.2496 13.9572 28.0245 13.9348 27.7994C13.899 27.4572 13.8721 27.1151 13.8452 26.7729C13.8273 26.5433 13.8138 26.3137 13.8004 26.0842C13.7914 25.9536 13.778 25.823 13.7735 25.6925H0.875V25.688Z" fill="#0E6A35"/>
<path d="M16.0368 25.9851C16.0502 26.2192 16.0682 26.4533 16.0861 26.6874C16.1085 26.998 16.1354 27.3042 16.1668 27.6148C16.1892 27.8489 16.2161 28.0875 16.2474 28.3216C16.2833 28.6277 16.3236 28.9338 16.3684 29.2355C16.4043 29.4696 16.4402 29.7037 16.476 29.9332C16.5253 30.2394 16.5836 30.541 16.6418 30.8471C16.6866 31.0767 16.727 31.3018 16.7763 31.5314C16.839 31.842 16.9107 32.1482 16.9869 32.4543C17.0407 32.6749 17.09 32.891 17.1438 33.1116C17.2245 33.4312 17.3141 33.7508 17.4082 34.0705C17.4665 34.2686 17.5158 34.4711 17.5785 34.6692C17.6906 35.0339 17.8071 35.394 17.9281 35.7587C17.9774 35.9072 18.0222 36.0558 18.076 36.2044C18.2508 36.7086 18.439 37.2128 18.6362 37.7125C18.6765 37.8205 18.7258 37.9241 18.7707 38.0321C18.932 38.4238 19.0933 38.8109 19.2637 39.1981C19.3443 39.3782 19.4295 39.5492 19.5101 39.7293C19.6536 40.0399 19.8015 40.3506 19.9538 40.6567C20.0524 40.8503 20.1555 41.0439 20.2541 41.2329C20.402 41.5166 20.5544 41.8002 20.7068 42.0838C20.8188 42.2819 20.9309 42.48 21.0474 42.6735C21.2042 42.9437 21.3611 43.2138 21.5269 43.4794C21.6479 43.6775 21.7734 43.871 21.8944 44.0646C22.0603 44.3257 22.2306 44.5868 22.4054 44.8434C22.5353 45.037 22.6653 45.2261 22.7998 45.4152C22.979 45.6718 23.1628 45.9239 23.351 46.176C23.4855 46.3606 23.6244 46.5452 23.7633 46.7252C23.9605 46.9773 24.1577 47.2294 24.3594 47.4815C24.4983 47.6526 24.6373 47.8282 24.7807 47.9993C24.83 48.0578 24.8838 48.1163 24.9375 48.1793C24.9868 48.1208 25.0361 48.0668 25.0854 48.0083C25.2333 47.8327 25.3768 47.6526 25.5247 47.4725C25.7219 47.2294 25.9146 46.9863 26.1073 46.7387C26.2507 46.5497 26.3941 46.3606 26.533 46.1715C26.7168 45.9239 26.8916 45.6763 27.0709 45.4287C27.2098 45.2351 27.3442 45.037 27.4787 44.8389C27.649 44.5868 27.8148 44.3347 27.9762 44.0781C28.1061 43.88 28.2316 43.6775 28.3571 43.4749C28.5185 43.2138 28.6708 42.9482 28.8277 42.6825C28.9442 42.48 29.0608 42.2819 29.1728 42.0748C29.3252 41.8002 29.4731 41.5211 29.6165 41.2419C29.7196 41.0439 29.8271 40.8458 29.9257 40.6477C30.0781 40.3461 30.217 40.0445 30.3605 39.7383C30.4456 39.5583 30.5352 39.3782 30.6159 39.1936C30.7862 38.8154 30.9431 38.4328 31.0999 38.0501C31.1448 37.9376 31.1985 37.825 31.2434 37.7125C31.4406 37.2128 31.6288 36.7131 31.8036 36.2089C31.8574 36.0603 31.9022 35.9117 31.9515 35.7632C32.0725 35.403 32.1935 35.0429 32.3011 34.6782C32.3593 34.4801 32.4131 34.2821 32.4714 34.0795C32.561 33.7598 32.6506 33.4402 32.7358 33.1206C32.7896 32.9045 32.8433 32.6839 32.8926 32.4633C32.9644 32.1572 33.0361 31.851 33.1033 31.5449C33.1526 31.3153 33.1929 31.0857 33.2377 30.8606C33.296 30.559 33.3498 30.2574 33.4036 29.9513C33.4439 29.7172 33.4798 29.4831 33.5111 29.249C33.5559 28.9473 33.5963 28.6457 33.6321 28.3396C33.659 28.101 33.6904 27.8624 33.7128 27.6238C33.7442 27.3177 33.7711 27.016 33.7935 26.7099C33.8114 26.4713 33.8293 26.2327 33.8428 25.9941C33.8473 25.8996 33.8517 25.8005 33.8562 25.706H16.0278C16.0323 25.805 16.0368 25.9041 16.0413 26.0031L16.0368 25.9851Z" fill="#0E6A35"/>
<path d="M24.933 48.18C24.933 48.18 24.933 48.18 24.9382 48.1852C24.9382 48.1852 24.9382 48.1852 24.9434 48.18C24.9434 48.18 24.9434 48.18 24.9382 48.1748C24.9382 48.1748 24.9382 48.1748 24.933 48.18Z" fill="#0E6A35"/>
<path d="M33.8382 23.1489C33.8248 22.9103 33.8068 22.6717 33.7889 22.4331C33.7665 22.127 33.7396 21.8208 33.7082 21.5192C33.6858 21.2806 33.6545 21.042 33.6276 20.8034C33.5917 20.5018 33.5514 20.1957 33.5066 19.894C33.4707 19.6599 33.4349 19.4258 33.399 19.1917C33.3497 18.8856 33.2914 18.584 33.2332 18.2824C33.1884 18.0528 33.148 17.8232 33.0987 17.5981C33.036 17.292 32.9643 16.9858 32.8881 16.6797C32.8343 16.4591 32.785 16.243 32.7312 16.0224C32.6505 15.7028 32.5609 15.3832 32.4668 15.0635C32.4085 14.8654 32.3592 14.6629 32.2965 14.4648C32.1844 14.1001 32.0679 13.74 31.9469 13.3753C31.8976 13.2268 31.8528 13.0782 31.799 12.9296C31.6242 12.4254 31.436 11.9212 31.2388 11.426C31.194 11.3135 31.1447 11.2009 31.0954 11.0884C30.9385 10.7057 30.7772 10.3231 30.6113 9.9449C30.5307 9.76032 30.441 9.58025 30.3559 9.40018C30.2125 9.09405 30.0735 8.79242 29.9212 8.4908C29.8226 8.29272 29.715 8.09463 29.6119 7.89655C29.4685 7.61743 29.3206 7.33832 29.1682 7.0637C29.0562 6.86112 28.9397 6.65854 28.8187 6.45595C28.6663 6.19034 28.5094 5.92923 28.3526 5.66812C28.2271 5.46554 28.1016 5.26296 27.9716 5.06487C27.8103 4.80827 27.6444 4.55616 27.4741 4.30406C27.3397 4.10598 27.2052 3.90789 27.0663 3.71431C26.8915 3.46671 26.7122 3.21911 26.5285 2.9715C26.3895 2.78243 26.2461 2.58884 26.1027 2.40427C25.9145 2.15667 25.7173 1.91356 25.5246 1.67046C25.3812 1.49039 25.2333 1.31031 25.0854 1.13024C25.0361 1.07171 24.9868 1.01769 24.9375 0.959167C24.8882 1.01769 24.8389 1.07171 24.7896 1.13024C24.6417 1.30581 24.4982 1.48589 24.3503 1.66596C24.1532 1.90906 23.956 2.15216 23.7677 2.39977C23.6243 2.58434 23.4854 2.77342 23.3464 2.9625C23.1627 3.2101 22.9834 3.45771 22.8041 3.70981C22.6697 3.90339 22.5352 4.09697 22.4053 4.29055C22.235 4.54716 22.0647 4.80377 21.8988 5.06037C21.7733 5.25845 21.6479 5.45654 21.5268 5.65462C21.3655 5.92023 21.2086 6.18584 21.0518 6.45595C20.9353 6.65403 20.8232 6.85212 20.7112 7.0502C20.5543 7.32932 20.4064 7.61293 20.2585 7.89655C20.1554 8.09013 20.0524 8.28371 19.9582 8.47729C19.8059 8.78342 19.658 9.09405 19.5145 9.40468C19.4339 9.58025 19.3487 9.75582 19.268 9.9314C19.0933 10.3186 18.9274 10.7147 18.7706 11.1109C18.7302 11.2144 18.6809 11.3135 18.6406 11.417C18.4434 11.9167 18.2552 12.4209 18.0804 12.9251C18.0311 13.0692 17.9863 13.2133 17.937 13.3573C17.816 13.722 17.695 14.0866 17.5829 14.4558C17.5246 14.6494 17.4709 14.8474 17.4171 15.0455C17.3275 15.3652 17.2333 15.6893 17.1527 16.0089C17.0989 16.225 17.0496 16.4411 16.9958 16.6617C16.9241 16.9678 16.8524 17.2784 16.7852 17.5891C16.7359 17.8142 16.6955 18.0438 16.6507 18.2689C16.5924 18.575 16.5387 18.8766 16.4849 19.1827C16.4445 19.4168 16.4132 19.6464 16.3773 19.8805C16.3325 20.1867 16.2922 20.4928 16.2563 20.7989C16.2294 21.033 16.2025 21.2671 16.1756 21.5057C16.1443 21.8118 16.1174 22.1225 16.095 22.4331C16.077 22.6672 16.0591 22.9013 16.0457 23.1354C16.0412 23.2344 16.0367 23.3335 16.0322 23.4325H33.8606C33.8561 23.338 33.8517 23.2389 33.8472 23.1444L33.8382 23.1489Z" fill="#0E6A35"/>
<path d="M24.9434 0.94638C24.9434 0.94638 24.9434 0.94638 24.9382 0.941162C24.9382 0.941162 24.9382 0.941162 24.933 0.94638C24.933 0.94638 24.933 0.94638 24.9382 0.951597C24.9382 0.951597 24.9382 0.951597 24.9434 0.94638Z" fill="#0E6A35"/>
</g>
<defs>
<clipPath id="clip0_184_45">
<rect width="48.125" height="48.125" fill="white" transform="translate(0.875 0.5)"/>
</clipPath>
</defs>
</svg>
