<svg width="48" height="48" viewBox="0 0 48 48" fill="none" xmlns="http://www.w3.org/2000/svg">
<g clip-path="url(#clip0_184_6)">
<path d="M4.24029 48C4.23091 47.9335 4.2206 47.8941 4.2206 47.8538C4.22248 45.4735 4.1681 43.0922 4.24404 40.7147C4.3256 38.1525 5.33529 35.9334 7.11091 34.0913C9.20904 31.9153 11.789 30.8419 14.8172 30.8606C15.4959 30.8644 16.1747 30.8738 16.8525 30.855C17.115 30.8475 17.3015 30.9347 17.4937 31.1016C18.9094 32.3306 20.5312 33.1322 22.3847 33.4725C24.6684 33.8925 26.7056 33.3319 28.5478 31.9716C28.95 31.6744 29.3194 31.3331 29.7122 31.0238C29.8106 30.9459 29.9456 30.8691 30.0637 30.8681C31.3894 30.8644 32.7206 30.7997 34.0387 30.8991C37.8459 31.1859 40.6725 33.0684 42.5465 36.3741C43.4072 37.8919 43.7831 39.5541 43.7925 41.2941C43.8028 43.4344 43.7953 45.5738 43.7944 47.7141C43.7944 47.805 43.7822 47.8969 43.7756 48H4.24029Z" fill="#2E3192"/>
<path d="M13.1334 7.94904C13.9612 8.18622 14.7403 8.40841 15.5194 8.63247C18.2231 9.40872 20.9259 10.1897 23.6334 10.9528C23.8584 11.0165 24.1322 11.0184 24.3572 10.9547C27.7453 9.99372 31.1278 9.01685 34.5131 8.04466C34.6115 8.01654 34.7119 7.99779 34.8403 7.96872C34.8459 8.09154 34.8553 8.19185 34.8553 8.29122C34.8553 10.1803 34.8619 12.0693 34.8478 13.9584C34.8459 14.1731 34.7259 14.385 34.6669 14.6006C34.6378 14.7056 34.6003 14.8162 34.6078 14.9212C34.7147 16.5581 34.7737 18.1978 34.5478 19.8262C34.0294 23.5668 32.4759 26.7459 29.339 28.9893C25.9144 31.4381 21.419 31.2665 18.1453 28.6181C15.6872 26.6287 14.2809 24.014 13.634 20.9615C13.2103 18.9628 13.2628 16.9397 13.395 14.9156C13.4006 14.8265 13.4175 14.7018 13.3697 14.6503C13.1259 14.3953 13.1344 14.0859 13.1353 13.77C13.1372 11.9643 13.1362 10.1587 13.1362 8.3531C13.1362 8.23872 13.1362 8.12529 13.1362 7.94997L13.1334 7.94904ZM15.42 15.1415C15.4059 15.2475 15.3862 15.329 15.3872 15.4097C15.404 16.7531 15.33 18.1059 15.4622 19.439C15.735 22.1934 16.8197 24.6028 18.839 26.5462C21.5794 29.1843 25.5009 29.4047 28.5159 27.0843C30.0553 25.8993 31.0865 24.3422 31.7944 22.5525C32.5659 20.6015 32.7131 18.5615 32.6597 16.4943C32.6484 16.049 32.6137 15.6056 32.5903 15.1631C32.5228 15.1565 32.4919 15.1481 32.4619 15.1509C30.5381 15.2981 28.6144 15.4472 26.6897 15.5934C25.754 15.6647 24.8128 15.8222 23.8819 15.7781C21.8925 15.6843 19.9087 15.4847 17.9222 15.33C17.0925 15.2653 16.2628 15.2062 15.419 15.1434L15.42 15.1415Z" fill="#2E3192"/>
<path d="M42.0535 5.12998C40.4972 5.57717 39.0207 6.00092 37.5169 6.43217C37.2582 5.83404 36.7107 5.80592 36.18 5.73279C32.5238 5.22936 28.8685 4.72311 25.2132 4.21217C25.0857 4.19436 24.9591 4.12686 24.8447 4.06123C24.2569 3.72373 23.5154 3.76592 22.9894 4.17373C22.3472 4.67248 22.3482 5.60061 23.0007 6.08342C23.5116 6.46123 24.0675 6.50529 24.6619 6.28686C24.8269 6.22592 25.0229 6.19217 25.1944 6.21561C28.0341 6.60842 30.8719 7.01248 33.7107 7.41373C33.7379 7.41748 33.7641 7.43154 33.8607 7.46529C33.7013 7.51967 33.601 7.55904 33.4979 7.58904C30.4341 8.46842 27.3704 9.35061 24.3038 10.2197C24.1163 10.2731 23.8875 10.2759 23.701 10.2225C17.9007 8.56592 12.1041 6.89998 6.30662 5.23498C6.21005 5.20686 6.11537 5.17498 5.94568 5.12154C6.95912 4.82904 7.89755 4.55529 8.83693 4.28623C13.7644 2.87061 18.691 1.45592 23.6213 0.0543571C23.8463 -0.00939285 24.12 -0.0206428 24.3432 0.0431071C30.1238 1.69217 35.9007 3.35342 41.6775 5.01373C41.776 5.04186 41.8735 5.07467 42.0535 5.13092V5.12998Z" fill="#2E3192"/>
<path d="M37.4747 20.355H35.5847C35.6635 19.8965 35.7338 19.4597 35.8135 19.0237C35.9428 18.3056 36.0741 17.5884 36.2138 16.8722C36.2428 16.7212 36.2175 16.6368 36.0835 16.5384C35.6841 16.245 35.6466 15.7893 35.9485 15.3843C36.0169 15.2925 36.0713 15.164 36.0713 15.0515C36.0778 12.5465 36.0741 10.0415 36.0807 7.53654C36.0807 7.32373 36.0085 7.25342 35.8013 7.22342C32.3119 6.73404 28.8225 6.23529 25.3341 5.74029C25.0407 5.69904 24.7697 5.65498 24.4716 5.83217C24.135 6.03373 23.7422 5.98217 23.3953 5.77967C22.8582 5.46654 22.8441 4.80092 23.3747 4.48123C23.7825 4.23561 24.2016 4.25248 24.6244 4.47561C24.8025 4.56936 24.9975 4.66029 25.1935 4.68842C27.9807 5.08217 30.7697 5.46373 33.5588 5.84998C34.53 5.98404 35.5003 6.12092 36.4707 6.26154C37.006 6.33935 37.0922 6.44623 37.0932 6.99748C37.0932 9.06373 37.0932 11.1309 37.0932 13.1972C37.0932 13.709 37.0913 14.22 37.0932 14.7318C37.095 15.0403 37.0763 15.3403 37.2488 15.6356C37.4166 15.9243 37.3078 16.305 37.0238 16.5C36.8391 16.6265 36.8297 16.7484 36.8653 16.9387C37.0688 18.0243 37.2619 19.1128 37.4588 20.2003C37.4663 20.2397 37.4672 20.28 37.4757 20.355H37.4747Z" fill="#2E3192"/>
</g>
<defs>
<clipPath id="clip0_184_6">
<rect width="48" height="48" fill="white"/>
</clipPath>
</defs>
</svg>
